<?xml version="1.0" standalone="no"?>
<!DOCTYPE svg PUBLIC "-//W3C//DTD SVG 20010904//EN"
 "http://www.w3.org/TR/2001/REC-SVG-20010904/DTD/svg10.dtd">
<svg version="1.0" xmlns="http://www.w3.org/2000/svg"
 width="260.000000pt" height="260.000000pt" viewBox="0 0 260.000000 260.000000"
 preserveAspectRatio="xMidYMid meet">
<metadata>
Created by potrace 1.11, written by Peter Selinger 2001-2013
</metadata>
<g transform="translate(0.000000,260.000000) scale(0.100000,-0.100000)"
fill="#000000" stroke="none">
<path d="M0 1300 l0 -1300 1300 0 1300 0 0 1300 0 1300 -1300 0 -1300 0 0
-1300z m432 790 c52 0 88 -4 88 -10 0 -6 36 -10 89 -10 50 0 93 -4 96 -10 3
-5 19 -10 36 -10 l29 0 0 -98 c0 -54 -2 -101 -4 -103 -5 -5 -17 -525 -21 -907
-1 -150 -5 -276 -9 -279 -3 -4 -6 -42 -6 -85 l0 -78 -105 0 c-63 0 -105 -4
-105 -10 0 -6 -31 -10 -73 -10 l-74 0 -6 172 c-3 95 -3 176 2 181 4 4 6 162 4
350 -2 188 -3 346 -3 350 0 5 -14 -3 -31 -17 -17 -14 -37 -26 -44 -26 -8 0
-20 -8 -27 -19 -7 -10 -23 -21 -34 -25 -19 -6 -22 -2 -28 34 -3 22 -11 40 -16
40 -6 0 -10 5 -10 11 0 5 -10 31 -22 57 -25 52 -23 49 -33 80 -4 12 -11 22
-14 22 -4 0 -18 21 -30 48 -12 26 -26 54 -31 64 -7 13 20 46 133 162 90 92
145 142 151 136 6 -6 50 -10 98 -10z m1018 -50 c0 -6 90 -10 249 -10 156 0
252 -4 256 -10 4 -6 55 -10 120 -10 65 0 116 -4 120 -10 3 -5 19 -10 35 -10
16 0 31 -4 35 -10 3 -5 12 -7 20 -3 8 3 15 0 15 -6 0 -6 5 -11 11 -11 16 0 90
-63 100 -85 5 -11 23 -45 40 -75 28 -50 31 -66 37 -178 4 -68 4 -126 1 -127
-3 -2 -12 -128 -19 -280 -7 -152 -16 -278 -21 -280 -4 -3 -5 -23 -2 -45 3 -22
1 -45 -5 -52 -5 -7 -13 -37 -17 -66 -4 -28 -11 -52 -16 -52 -5 0 -9 -5 -9 -11
0 -29 -48 -108 -95 -155 -36 -37 -63 -55 -89 -59 -20 -4 -36 -11 -36 -16 0 -5
-15 -9 -34 -9 -19 0 -37 -4 -40 -9 -3 -5 -100 -6 -219 -3 -155 3 -216 2 -221
-7 -9 -14 -366 -16 -366 -1 0 6 -10 10 -22 10 -29 0 -108 39 -115 56 -3 8 -11
14 -17 14 -25 0 -90 88 -111 150 -8 24 -18 48 -25 62 -5 9 -12 40 -16 70 -4
29 -11 58 -16 65 -16 20 -16 836 -1 855 7 8 10 18 7 21 -8 7 20 70 50 112 12
16 26 38 31 49 6 10 19 24 30 30 11 6 24 17 28 24 4 6 13 12 18 12 6 0 24 9
40 21 16 11 33 18 38 14 5 -3 12 -1 16 5 3 5 21 10 40 10 19 0 37 5 40 10 3 6
35 10 71 10 36 0 64 -4 64 -10z"/>
<path d="M1420 1288 c0 -95 -3 -230 -7 -300 l-6 -128 91 0 c50 0 94 -4 97 -10
4 -6 78 -10 190 -10 112 0 186 -4 190 -10 4 -6 53 -10 116 -10 l109 0 0 123
c0 67 3 206 7 310 l6 187 -151 0 c-90 0 -153 4 -157 10 -4 6 -97 10 -246 10
l-239 0 0 -172z"/>
</g>
</svg>
